<?xml version="1.0" encoding="UTF-8"?>
<svg id="Layer_1" data-name="Layer 1" xmlns="http://www.w3.org/2000/svg" version="1.1" viewBox="0 0 134 134">
  <defs>
    <style>
      .cls-1 {
        fill: #000;
      }

      .cls-1, .cls-2 {
        stroke-width: 0px;
      }

      .cls-2 {
        fill: #fff000;
      }
    </style>
  </defs>
  <path class="cls-2" d="M32.22,129.64c-9.27-19.04-8.53-43.68,2.24-68.44l.29-1c2.01-6.96,4.51-15.63-2.43-21.58-5.94-4.62-13.33-7.16-20.81-7.16-2.41,0-4.81.26-7.16.76,8.69-4.24,18.53-6.39,29.34-6.39,12.62,0,26.14,2.98,39.11,8.62l1,.29c3.47,1,7.4,2.13,11.2,2.13,4.35,0,7.75-1.49,10.38-4.56,6.25-8.03,8.51-18.2,6.4-27.96,9.27,19.04,8.53,43.68-2.24,68.44l-.29,1c-2.01,6.96-4.51,15.63,2.43,21.58,5.94,4.62,13.32,7.16,20.81,7.16h0c2.41,0,4.81-.26,7.16-.76-8.69,4.24-18.53,6.39-29.34,6.39-12.62,0-26.14-2.98-39.11-8.62l-1-.29c-3.47-1-7.4-2.13-11.2-2.13-4.35,0-7.75,1.49-10.38,4.56-6.25,8.03-8.51,18.2-6.4,27.96Z"/>
  <path class="cls-1" d="M102.86,7.99c3.47,8.43,5.07,17.85,4.76,28.1-.35,11.84-3.31,24.46-8.54,36.51l-.03.06-.02.06-.27.94c-2.05,7.1-4.6,15.94,2.62,22.13,6.01,4.67,13.5,7.25,21.1,7.25,1.18,0,2.36-.06,3.53-.18-7.76,3.19-16.37,4.8-25.71,4.8-12.55,0-26.01-2.97-38.91-8.58l-.06-.03-.06-.02-.94-.27c-3.5-1.01-7.47-2.15-11.34-2.15-4.51,0-8.03,1.55-10.79,4.77-5.53,7.11-7.98,15.9-7.07,24.62-3.47-8.43-5.07-17.85-4.76-28.1.35-11.84,3.31-24.46,8.54-36.51l.03-.06.02-.06.27-.94c2.05-7.1,4.6-15.94-2.62-22.13-6.01-4.67-13.5-7.25-21.1-7.25-1.18,0-2.36.06-3.53.18,7.76-3.19,16.37-4.8,25.71-4.8,12.55,0,26.01,2.97,38.91,8.58l.06.03.06.02.94.27c3.5,1.01,7.47,2.15,11.34,2.15,4.51,0,8.03-1.55,10.79-4.77,5.53-7.11,7.98-15.9,7.07-24.62M100,0c4,11,2,23-5,32-2.84,3.31-6.35,4.39-10,4.39-4.07,0-8.31-1.33-12-2.39-12.24-5.32-25.9-8.66-39.31-8.66-11.79,0-23.4,2.58-33.69,8.66,3.78-1.37,7.67-2.04,11.52-2.04,7.37,0,14.57,2.44,20.48,7.04,7,6,4,15,2,22-10,23-13,51,0,73-4-11-2-23,5-32,2.84-3.31,6.35-4.39,10-4.39,4.07,0,8.31,1.33,12,2.39,12.24,5.32,25.9,8.66,39.31,8.66,11.79,0,23.4-2.58,33.69-8.66-3.78,1.37-7.67,2.04-11.52,2.04-7.37,0-14.57-2.44-20.48-7.04-7-6-4-15-2-22,10-23,13-51,0-73h0Z"/>
</svg>